
<svg xmlns="http://www.w3.org/2000/svg" viewBox="-224 0 448 512" fill="aqua" >
  <!--!Font Awesome Free 6.7.1 by @fontawesome - https://fontawesome.com License - https://fontawesome.com/license/free Copyright 2024 Fonticons, Inc.-->
    <path d="M-81 144 l0 48 l160 0 l0 -48 c0 -44.2 -35.8 -80 -80 -80 s-80 35.8 -80 80z M-145 192 l 0 -48 C-145 64.5 -80.5 0 -1 0 s 144 64.5 144 144 l0 48 l16 0 c35.3 0 64 28.7 64 64 l0 192 c 0 35.3 -28.7 64 -64 64 L-161 512 c-35.3 0 -64 -28.7 -64 -64 L-225 256 c0 -35.3 28.7 -64 64 -64 l16 0z"/>
</svg>